<?xml version="1.0" encoding="utf-8"?>
<svg viewBox="82.317 82.317 1091.593 135.164" xmlns="http://www.w3.org/2000/svg">
  <path fill-rule="evenodd" clip-rule="evenodd" d="M195.44 144.02C195.44 115.637 172.404 92.6008 144.02 92.6008C115.637 92.6008 92.6008 115.637 92.6008 144.02V178.163V185.156H82.3169V144.02C82.3169 109.929 109.929 82.3169 144.02 82.3169C178.111 82.3169 205.723 109.929 205.723 144.02V185.156H195.44V178.163V173.329V144.02ZM174.872 144.02C174.872 161.04 161.04 174.872 144.02 174.872C136.719 174.872 130.034 172.352 124.789 168.136C124.275 167.725 123.452 168.084 123.452 168.753V179.088C123.452 179.448 123.658 179.808 123.967 179.962C129.88 183.305 136.719 185.156 144.02 185.156C166.748 185.156 185.156 166.748 185.156 144.02C185.156 121.293 166.748 102.885 144.02 102.885C121.293 102.885 102.885 121.293 102.885 144.02V185.156H113.169V144.02C113.169 127 127 113.169 144.02 113.169C161.04 113.169 174.872 127 174.872 144.02ZM144.02 154.304C149.676 154.304 154.304 149.676 154.304 144.02C154.304 138.364 149.676 133.736 144.02 133.736C138.364 133.736 133.736 138.364 133.736 144.02C133.736 149.676 138.364 154.304 144.02 154.304ZM144.02 164.588C155.384 164.588 164.588 155.384 164.588 144.02C164.588 132.657 155.384 123.452 144.02 123.452C132.657 123.452 123.452 132.657 123.452 144.02C123.452 155.384 132.657 164.588 144.02 164.588Z" fill="#131926"/>
  <path fill-rule="evenodd" clip-rule="evenodd" d="M267.333 185.162L267.333 82.3169L268.361 82.3169L268.361 185.162L267.333 185.162Z" fill="#131926"/>
  <path d="M363.504 185.149C357.017 185.149 351.12 183.67 345.812 180.712C340.589 177.753 336.461 173.569 333.428 168.159C330.479 162.665 329.005 156.325 329.005 149.141C329.005 142.04 330.521 135.785 333.554 130.376C336.671 124.881 340.884 120.697 346.191 117.823C351.499 114.865 357.438 113.386 364.01 113.386C370.581 113.386 376.521 114.865 381.828 117.823C387.136 120.697 391.306 124.839 394.339 130.249C397.456 135.658 399.015 141.956 399.015 149.141C399.015 156.325 397.414 162.665 394.213 168.159C391.095 173.569 386.841 177.753 381.449 180.712C376.057 183.67 370.076 185.149 363.504 185.149ZM363.504 175.006C367.632 175.006 371.508 174.034 375.13 172.09C378.753 170.146 381.66 167.229 383.85 163.341C386.125 159.453 387.262 154.719 387.262 149.141C387.262 143.562 386.167 138.828 383.976 134.94C381.786 131.052 378.922 128.178 375.383 126.318C371.845 124.374 368.012 123.402 363.883 123.402C359.671 123.402 355.796 124.374 352.257 126.318C348.803 128.178 346.023 131.052 343.917 134.94C341.81 138.828 340.757 143.562 340.757 149.141C340.757 154.804 341.768 159.58 343.79 163.468C345.896 167.356 348.677 170.272 352.131 172.217C355.585 174.076 359.376 175.006 363.504 175.006Z" fill="#131926"/>
  <path d="M420.58 127.333C422.855 123.36 426.224 120.063 430.69 117.443C435.239 114.738 440.505 113.386 446.486 113.386C452.636 113.386 458.197 114.865 463.167 117.823C468.222 120.782 472.182 124.966 475.046 130.376C477.911 135.701 479.343 141.913 479.343 149.014C479.343 156.03 477.911 162.285 475.046 167.779C472.182 173.273 468.222 177.542 463.167 180.585C458.197 183.628 452.636 185.149 446.486 185.149C440.589 185.149 435.365 183.839 430.816 181.219C426.351 178.514 422.939 175.175 420.58 171.202V216.974H409.08V114.527H420.58V127.333ZM467.59 149.014C467.59 143.773 466.537 139.209 464.431 135.32C462.325 131.432 459.46 128.474 455.838 126.445C452.299 124.416 448.382 123.402 444.085 123.402C439.873 123.402 435.955 124.459 432.332 126.572C428.794 128.6 425.93 131.601 423.739 135.574C421.633 139.462 420.58 143.984 420.58 149.141C420.58 154.381 421.633 158.988 423.739 162.961C425.93 166.849 428.794 169.85 432.332 171.963C435.955 173.992 439.873 175.006 444.085 175.006C448.382 175.006 452.299 173.992 455.838 171.963C459.46 169.85 462.325 166.849 464.431 162.961C466.537 158.988 467.59 154.339 467.59 149.014Z" fill="#131926"/>
  <path d="M523.166 113.259C531.591 113.259 538.415 115.837 543.638 120.993C548.862 126.065 551.473 133.418 551.473 143.055V184.008H540.1V144.703C540.1 137.772 538.373 132.489 534.919 128.854C531.465 125.135 526.747 123.275 520.765 123.275C514.699 123.275 509.855 125.177 506.232 128.981C502.694 132.785 500.925 138.321 500.925 145.59V184.008H489.425V114.527H500.925V124.416C503.199 120.866 506.274 118.119 510.15 116.175C514.11 114.231 518.448 113.259 523.166 113.259Z" fill="#131926"/>
  <path d="M581.885 123.909C584.159 120.697 587.276 118.035 591.236 115.921C595.28 113.724 599.871 112.625 605.011 112.625C610.992 112.625 616.384 114.104 621.186 117.062C626.073 120.021 629.906 124.247 632.686 129.742C635.55 135.151 636.983 141.449 636.983 148.633C636.983 155.818 635.55 162.2 632.686 167.779C629.906 173.273 626.073 177.542 621.186 180.585C616.384 183.628 610.992 185.149 605.011 185.149C599.871 185.149 595.322 184.093 591.362 181.979C587.487 179.866 584.328 177.204 581.885 173.992V217.481H564.193V113.766H581.885V123.909ZM618.912 148.633C618.912 144.407 618.027 140.772 616.258 137.729C614.573 134.602 612.298 132.235 609.434 130.629C606.653 129.023 603.621 128.22 600.335 128.22C597.133 128.22 594.101 129.065 591.236 130.756C588.456 132.362 586.181 134.729 584.412 137.856C582.727 140.984 581.885 144.661 581.885 148.887C581.885 153.113 582.727 156.79 584.412 159.918C586.181 163.045 588.456 165.454 591.236 167.145C594.101 168.751 597.133 169.554 600.335 169.554C603.621 169.554 606.653 168.709 609.434 167.018C612.298 165.328 614.573 162.919 616.258 159.791C618.027 156.663 618.912 152.944 618.912 148.633Z" fill="#131926"/>
  <path d="M640.235 148.633C640.235 141.533 641.625 135.236 644.405 129.742C647.269 124.247 651.103 120.021 655.905 117.062C660.791 114.104 666.225 112.625 672.207 112.625C677.43 112.625 681.98 113.681 685.855 115.795C689.815 117.908 692.974 120.57 695.333 123.782V113.766H713.151V184.008H695.333V173.738C693.058 177.035 689.899 179.782 685.855 181.979C681.895 184.093 677.304 185.149 672.08 185.149C666.183 185.149 660.791 183.628 655.905 180.585C651.103 177.542 647.269 173.273 644.405 167.779C641.625 162.2 640.235 155.818 640.235 148.633ZM695.333 148.887C695.333 144.576 694.49 140.899 692.805 137.856C691.121 134.729 688.846 132.362 685.981 130.756C683.117 129.065 680.042 128.22 676.756 128.22C673.471 128.22 670.438 129.023 667.657 130.629C664.877 132.235 662.603 134.602 660.833 137.729C659.148 140.772 658.306 144.407 658.306 148.633C658.306 152.86 659.148 156.579 660.833 159.791C662.603 162.919 664.877 165.328 667.657 167.018C670.522 168.709 673.555 169.554 676.756 169.554C680.042 169.554 683.117 168.751 685.981 167.145C688.846 165.454 691.121 163.088 692.805 160.045C694.49 156.917 695.333 153.198 695.333 148.887Z" fill="#131926"/>
  <path d="M792.353 113.766L749.007 217.227H730.178L745.343 182.233L717.288 113.766H737.128L755.2 162.834L773.523 113.766H792.353Z" fill="#131926"/>
  <path d="M883.779 112.752C892.372 112.752 899.281 115.414 904.504 120.739C909.812 125.98 912.465 133.334 912.465 142.801V184.008H894.773V145.21C894.773 139.716 893.383 135.532 890.603 132.658C887.823 129.699 884.032 128.22 879.23 128.22C874.427 128.22 870.594 129.699 867.73 132.658C864.95 135.532 863.559 139.716 863.559 145.21V184.008H845.867V145.21C845.867 139.716 844.477 135.532 841.697 132.658C838.917 129.699 835.126 128.22 830.324 128.22C825.437 128.22 821.562 129.699 818.697 132.658C815.917 135.532 814.527 139.716 814.527 145.21V184.008H796.835V113.766H814.527V122.261C816.802 119.302 819.708 116.978 823.247 115.287C826.869 113.597 830.829 112.752 835.126 112.752C840.602 112.752 845.488 113.935 849.785 116.302C854.082 118.584 857.409 121.881 859.768 126.191C862.043 122.134 865.329 118.88 869.625 116.428C874.006 113.977 878.724 112.752 883.779 112.752Z" fill="#131926"/>
  <path d="M989.281 147.365C989.281 149.901 989.112 152.184 988.775 154.212H937.595C938.016 159.284 939.785 163.257 942.902 166.131C946.019 169.004 949.853 170.441 954.402 170.441C960.973 170.441 965.649 167.61 968.429 161.946H987.511C985.489 168.709 981.614 174.287 975.885 178.683C970.156 182.994 963.122 185.149 954.781 185.149C948.041 185.149 941.975 183.67 936.584 180.712C931.276 177.669 927.106 173.4 924.073 167.906C921.124 162.411 919.65 156.072 919.65 148.887C919.65 141.618 921.124 135.236 924.073 129.742C927.021 124.247 931.15 120.021 936.457 117.062C941.765 114.104 947.873 112.625 954.781 112.625C961.437 112.625 967.376 114.062 972.6 116.936C977.907 119.81 981.993 123.909 984.858 129.234C987.806 134.475 989.281 140.519 989.281 147.365ZM970.957 142.294C970.872 137.729 969.23 134.095 966.028 131.39C962.827 128.6 958.909 127.206 954.276 127.206C949.895 127.206 946.188 128.558 943.155 131.263C940.206 133.883 938.395 137.56 937.721 142.294H970.957Z" fill="#131926"/>
  <path d="M1035.94 112.752C1044.28 112.752 1051.02 115.414 1056.15 120.739C1061.29 125.98 1063.86 133.334 1063.86 142.801V184.008H1046.17V145.21C1046.17 139.631 1044.78 135.363 1042 132.404C1039.22 129.361 1035.43 127.84 1030.63 127.84C1025.74 127.84 1021.87 129.361 1019 132.404C1016.22 135.363 1014.83 139.631 1014.83 145.21V184.008H997.139V113.766H1014.83V122.514C1017.19 119.471 1020.18 117.105 1023.8 115.414C1027.51 113.639 1031.55 112.752 1035.94 112.752Z" fill="#131926"/>
  <path d="M1096.23 128.347V162.327C1096.23 164.694 1096.78 166.426 1097.87 167.525C1099.05 168.54 1100.99 169.047 1103.69 169.047H1111.9V184.008H1100.78C1085.87 184.008 1078.41 176.739 1078.41 162.2V128.347H1070.07V113.766H1078.41V96.3955H1096.23V113.766H1111.9V128.347H1096.23Z" fill="#131926"/>
  <path d="M1146.36 185.149C1140.63 185.149 1135.49 184.135 1130.95 182.106C1126.4 179.993 1122.77 177.161 1120.08 173.611C1117.47 170.061 1116.03 166.131 1115.78 161.82H1133.6C1133.94 164.525 1135.24 166.765 1137.52 168.54C1139.88 170.315 1142.78 171.202 1146.24 171.202C1149.61 171.202 1152.22 170.526 1154.07 169.174C1156.01 167.821 1156.98 166.088 1156.98 163.975C1156.98 161.693 1155.8 160.002 1153.44 158.903C1151.16 157.72 1147.5 156.452 1142.45 155.1C1137.22 153.832 1132.93 152.522 1129.56 151.169C1126.27 149.817 1123.41 147.746 1120.96 144.956C1118.6 142.167 1117.42 138.406 1117.42 133.672C1117.42 129.784 1118.52 126.234 1120.71 123.022C1122.98 119.81 1126.19 117.274 1130.31 115.414C1134.53 113.555 1139.45 112.625 1145.1 112.625C1153.44 112.625 1160.1 114.738 1165.07 118.964C1170.04 123.106 1172.77 128.727 1173.28 135.828H1156.35C1156.09 133.038 1154.91 130.84 1152.81 129.234C1150.79 127.544 1148.05 126.699 1144.59 126.699C1141.39 126.699 1138.91 127.29 1137.14 128.474C1135.45 129.657 1134.61 131.305 1134.61 133.418C1134.61 135.785 1135.79 137.603 1138.15 138.87C1140.51 140.054 1144.17 141.28 1149.14 142.547C1154.2 143.815 1158.37 145.126 1161.65 146.478C1164.94 147.83 1167.76 149.944 1170.12 152.818C1172.56 155.607 1173.83 159.326 1173.91 163.975C1173.91 168.032 1172.77 171.667 1170.5 174.879C1168.31 178.091 1165.11 180.627 1160.9 182.487C1156.77 184.262 1151.92 185.149 1146.36 185.149Z" fill="#131926"/>
</svg>